# xmcd
#
# Track frame offsets:
#  150
#  19461
#  30657
#  46309
#  60430
#  80900
#  99818
#  120288
#  139348
#  154756
#  172612
#  189336
#  205604
#  224943
#  244637
#  264142
#  282167
#  303352
#  319364
#  336944
#
# Disc length: 4710 seconds
#
# Revision: 0
# Processed by: cddbd v1.5.1PL2 Copyright (c) Steve Scherf et al.
# Submitted via: Collectorz.com_Music_Collector 6.9
#
DISCID=14126414
DTITLE=Various Artist - Universal Motown Records Group - A&R Sampler - June 2004 - Volume 35
DYEAR=2004
DGENRE=
TTITLE0=Mario Winans feat. Enya and P. Diddy - I Don't Wanna Know
TTITLE1=Donavon Frankenreiter - Free
TTITLE2=Busted - What I Go To School For
TTITLE3=Will Ferrell - Afternoon Delight
TTITLE4=Jamie Cullum - All At Sea
TTITLE5=Katie Melua - The Closest Thing To Crazy
TTITLE6=Scissor Sisters - Take Your Mama
TTITLE7=Terror Squad - Lean Back
TTITLE8=New Edition - Hot 2Nite
TTITLE9=Tren'L - Outlaw
TTITLE10=Brian McKnight - What We Do Here
TTITLE11=David Banner - Pop That
TTITLE12=Teena Marie - Still In Love
TTITLE13=Mase - Welcome Back
TTITLE14=Mario Winans - Never Really Was
TTITLE15=O'Ryan - Take It Slow
TTITLE16=Small Tyme Ballaz - Certified
TTITLE17=Gary Jules - DTLA (Downtown Los Angeles)
TTITLE18=Matt Nathanson - I Saw
TTITLE19=Graham Colton Band - First Week
EXTD=
EXTT0=
EXTT1=
EXTT2=
EXTT3=
EXTT4=
EXTT5=
EXTT6=
EXTT7=
EXTT8=
EXTT9=
EXTT10=
EXTT11=
EXTT12=
EXTT13=
EXTT14=
EXTT15=
EXTT16=
EXTT17=
EXTT18=
EXTT19=
PLAYORDER=
